<?xml version="1.0" standalone="no"?>
<!DOCTYPE svg PUBLIC "-//W3C//DTD SVG 20010904//EN"
 "http://www.w3.org/TR/2001/REC-SVG-20010904/DTD/svg10.dtd">
<svg version="1.0" xmlns="http://www.w3.org/2000/svg"
 width="245.000000pt" height="206.000000pt" viewBox="0 0 245.000000 206.000000"
 preserveAspectRatio="xMidYMid meet">
<metadata>
Created by potrace 1.16, written by Peter Selinger 2001-2019
</metadata>
<g transform="translate(0.000000,206.000000) scale(0.100000,-0.100000)"
fill="#000000" stroke="none">
<path d="M1500 2038 c-54 -26 -193 -163 -245 -240 l-37 -56 -106 -7 c-132 -8
-259 -36 -343 -76 -72 -34 -188 -119 -235 -173 l-31 -35 -48 14 c-72 22 -220
30 -290 15 -86 -18 -129 -43 -150 -86 -43 -91 34 -229 216 -382 76 -64 79 -69
79 -110 0 -68 29 -192 61 -259 104 -218 289 -327 524 -308 193 16 367 64 523
145 102 54 115 49 66 -26 -57 -89 -168 -134 -326 -134 -151 0 -208 -32 -208
-117 0 -65 12 -69 61 -19 50 49 108 71 164 60 60 -11 55 -44 -8 -44 -36 0 -96
-25 -124 -52 -27 -25 -39 -78 -24 -106 21 -39 57 -42 529 -38 393 3 456 6 477
20 27 17 69 86 79 127 5 24 12 27 65 33 127 14 231 96 263 206 19 65 14 210
-11 304 -27 102 -50 141 -82 141 -23 0 -24 -3 -23 -52 1 -28 13 -86 28 -127
15 -45 26 -98 26 -129 0 -137 -84 -243 -209 -263 -38 -6 -40 -5 -46 22 -25
123 -50 158 -139 204 -76 39 -45 36 -368 27 -101 -3 -101 9 -4 85 128 101 217
221 256 347 50 159 3 382 -108 512 l-36 42 2 116 c5 192 -24 330 -80 394 -42
47 -78 54 -138 25z m99 -129 c28 -46 35 -116 20 -219 -6 -49 -13 -90 -15 -90
-2 0 -24 13 -50 30 -26 16 -87 44 -136 61 -50 18 -88 37 -88 45 0 7 22 41 48
76 96 125 181 163 221 97z m-1229 -530 c27 -6 50 -12 50 -13 0 -2 -16 -37 -35
-79 -19 -42 -42 -106 -51 -144 -8 -37 -17 -70 -19 -72 -8 -7 -105 71 -144 115
-22 25 -48 65 -57 90 -16 41 -16 45 0 69 10 14 27 30 39 35 31 12 157 12 217
-1z m1216 -155 c49 -26 94 -88 101 -140 11 -81 -37 -173 -111 -211 -65 -34
-171 -13 -235 48 -88 83 -58 247 58 310 46 25 131 21 187 -7z m-695 -295 c101
-50 134 -162 79 -269 -30 -59 -111 -110 -174 -110 -71 0 -157 55 -182 117 -33
78 1 207 66 253 57 40 141 44 211 9z"/>
<path d="M1360 1070 c-11 -11 -20 -31 -20 -45 0 -31 41 -75 70 -75 28 0 70 43
70 72 0 62 -76 92 -120 48z"/>
<path d="M826 839 c-34 -27 -35 -71 -1 -104 29 -30 55 -32 86 -6 47 38 18 131
-41 131 -9 0 -29 -9 -44 -21z"/>
</g>
</svg>
