<?xml version="1.0" standalone="no"?>
<!DOCTYPE svg PUBLIC "-//W3C//DTD SVG 20010904//EN"
 "http://www.w3.org/TR/2001/REC-SVG-20010904/DTD/svg10.dtd">
<svg version="1.0" xmlns="http://www.w3.org/2000/svg"
 width="256.000000pt" height="256.000000pt" viewBox="0 0 256.000000 256.000000"
 preserveAspectRatio="xMidYMid meet">
<metadata>
Created by potrace 1.16, written by Peter Selinger 2001-2019
</metadata>
<g transform="translate(0.000000,256.000000) scale(0.100000,-0.100000)"
fill="#000000" stroke="none">
<path d="M1211 2527 c-6 -7 -113 -465 -237 -1018 -202 -895 -227 -1014 -228
-1094 0 -78 4 -98 27 -150 15 -32 39 -74 53 -92 l25 -33 -278 0 c-292 0 -342
6 -368 43 -38 54 0 137 64 137 16 0 86 -13 155 -30 131 -31 166 -30 180 5 11
30 6 62 -11 78 -23 20 -261 77 -322 77 -59 -1 -118 -27 -158 -73 -41 -47 -56
-96 -51 -168 5 -73 43 -132 107 -166 l44 -23 502 0 c376 0 504 3 513 12 16 16
15 83 0 96 -7 5 -44 13 -83 17 -38 4 -88 15 -111 25 -50 22 -107 77 -134 131
-45 86 -49 63 180 1085 117 522 214 950 215 952 1 1 31 -17 66 -41 94 -63 158
-80 282 -75 113 4 181 28 258 89 22 17 41 30 43 28 1 -2 97 -422 212 -934 159
-708 209 -946 209 -995 -1 -140 -107 -250 -256 -267 -78 -8 -89 -17 -89 -63 0
-31 5 -43 25 -56 23 -15 36 -16 101 -6 220 30 368 211 351 427 -7 82 -452
2062 -469 2082 -6 7 -26 13 -46 13 -30 0 -46 -10 -108 -70 -94 -92 -154 -120
-254 -120 -100 0 -160 28 -254 120 -62 60 -78 70 -108 70 -20 0 -40 -6 -47
-13z"/>
<path d="M1133 1128 c-6 -7 -13 -21 -16 -30 -8 -22 177 -947 197 -987 9 -16
32 -43 53 -58 30 -23 48 -28 109 -31 60 -3 80 0 107 15 32 19 34 19 67 1 49
-26 132 -24 182 4 71 40 78 62 177 558 50 250 91 467 91 482 0 15 -7 34 -16
42 -20 20 -78 21 -94 1 -7 -9 -55 -225 -106 -482 -52 -256 -99 -472 -105 -479
-18 -22 -66 -17 -83 8 -14 19 -16 72 -16 376 0 224 -4 360 -10 373 -8 14 -21
19 -50 19 -71 0 -70 4 -70 -406 0 -398 2 -387 -62 -387 -19 0 -37 7 -48 20
-11 14 -48 180 -109 485 -51 254 -98 469 -103 476 -6 6 -27 12 -48 12 -21 0
-42 -6 -47 -12z"/>
</g>
</svg>
