<?xml version="1.0" standalone="no"?>
<!DOCTYPE svg PUBLIC "-//W3C//DTD SVG 20010904//EN"
 "http://www.w3.org/TR/2001/REC-SVG-20010904/DTD/svg10.dtd">
<svg version="1.0" xmlns="http://www.w3.org/2000/svg"
 width="320.000000pt" height="320.000000pt" viewBox="0 0 320.000000 320.000000"
 preserveAspectRatio="xMidYMid meet">
<metadata>
Created by potrace 1.16, written by Peter Selinger 2001-2019
</metadata>
<g transform="translate(0.000000,320.000000) scale(0.100000,-0.100000)"
fill="#000000" stroke="none">
<path d="M2795 2819 c-101 -169 -82 -157 -200 -128 -68 16 -392 16 -470 -1
-122 -26 -119 -26 -140 19 -11 22 -23 41 -27 41 -5 0 -8 5 -8 11 0 7 -18 40
-40 75 -22 35 -40 68 -40 74 0 5 -4 10 -9 10 -5 0 -11 9 -14 20 -13 50 -40 8
-106 -165 -16 -44 -35 -100 -41 -125 -6 -25 -16 -63 -21 -85 -64 -264 -7 -523
144 -660 79 -72 83 -75 151 -108 208 -102 511 -106 746 -10 85 35 132 66 203
133 70 66 117 141 148 235 19 58 23 92 23 195 0 122 -4 150 -44 285 -39 130
-133 335 -154 335 -7 0 -52 -68 -101 -151z m-685 -514 c46 -29 86 -93 96 -151
l6 -41 -63 -22 c-136 -46 -212 -16 -273 105 -22 44 -33 84 -23 84 1 0 29 11
62 25 80 33 143 33 195 0z m686 10 c96 -39 96 -38 60 -117 -32 -68 -54 -93
-101 -112 -48 -20 -93 -20 -158 0 -80 26 -85 33 -62 96 22 63 45 95 88 125 39
27 117 30 173 8z"/>
<path d="M765 2024 c-82 -9 -173 -37 -265 -81 -79 -38 -107 -59 -180 -132 -91
-91 -138 -171 -177 -296 -25 -83 -25 -292 0 -388 35 -132 104 -267 211 -412
146 -197 297 -298 516 -345 63 -14 376 -8 475 9 247 41 493 64 610 56 232 -16
388 -80 533 -219 78 -75 96 -85 150 -86 80 0 122 55 101 133 -8 29 -30 58 -82
109 -39 37 -75 68 -78 68 -4 0 -14 6 -21 13 -21 21 -97 68 -163 100 -177 87
-380 118 -647 98 -84 -6 -175 -16 -203 -21 -113 -21 -178 -30 -326 -46 -145
-15 -164 -15 -260 0 -73 12 -124 27 -173 51 -72 34 -164 104 -192 143 l-15 22
1094 0 1094 0 16 73 c49 223 64 402 47 555 -11 103 -41 257 -53 268 -2 2 -35
-7 -73 -20 -114 -40 -215 -56 -359 -56 -126 0 -255 18 -297 41 -10 5 -23 9
-30 9 -7 0 -48 18 -91 40 -42 22 -84 40 -93 40 -9 0 -38 -16 -64 -35 -55 -40
-59 -41 -86 -17 -54 49 -252 177 -328 211 -78 36 -201 79 -271 95 -72 16 -249
27 -320 20z"/>
</g>
</svg>
